<?xml version="1.0" standalone="no"?>
<!DOCTYPE svg PUBLIC "-//W3C//DTD SVG 20010904//EN"
 "http://www.w3.org/TR/2001/REC-SVG-20010904/DTD/svg10.dtd">
<svg version="1.0" xmlns="http://www.w3.org/2000/svg"
 width="500.000000pt" height="500.000000pt" viewBox="0 0 500.000000 500.000000"
 preserveAspectRatio="xMidYMid meet">
<metadata>
Created by potrace 1.14, written by Peter Selinger 2001-2017
</metadata>
<g transform="translate(0.000000,500.000000) scale(0.100000,-0.100000)"
fill="#000000" stroke="none">
<path d="M0 2500 l0 -2500 2500 0 2500 0 0 2500 0 2500 -2500 0 -2500 0 0
-2500z m2172 839 c3 -149 5 -163 23 -175 16 -11 25 -11 45 -1 25 13 25 13 28
175 l2 162 315 0 315 0 0 -157 c0 -87 4 -163 8 -169 12 -19 50 -22 71 -7 20
13 21 24 21 174 l0 159 153 0 c125 0 158 -3 187 -18 67 -33 66 -28 79 -612 6
-289 11 -575 11 -637 l0 -112 -37 -30 -38 -31 -857 2 -858 3 -32 33 -33 32 4
648 c3 567 5 650 19 671 30 46 59 50 324 51 l248 0 2 -161z m178 -1586 c0 -14
-34 -43 -52 -43 -19 0 -22 8 -12 34 6 15 64 24 64 9z m-1130 -32 c0 -5 3 -16
6 -25 10 -27 -32 -19 -50 9 -16 25 -16 25 14 25 16 0 30 -4 30 -9z m114 -36
c9 -13 16 -27 16 -30 0 -10 -36 -5 -48 7 -9 9 -15 9 -24 0 -13 -13 -48 -17
-48 -5 0 4 10 17 22 30 28 30 62 29 82 -2z m936 5 c0 -5 11 -10 25 -10 14 0
25 5 25 10 0 6 9 10 20 10 11 0 20 -5 20 -12 0 -22 -33 -48 -62 -48 -27 0 -68
30 -68 50 0 6 9 10 20 10 11 0 20 -4 20 -10z m-1352 -123 l3 -57 49 0 49 0 3
58 3 57 34 0 35 0 0 -148 1 -147 -37 0 -38 0 0 54 c0 59 -4 63 -60 62 l-35 -1
-3 -57 -3 -58 -39 0 -40 0 0 144 c0 142 0 145 23 148 47 8 52 4 55 -55z m442
45 c67 -33 91 -141 50 -221 -37 -73 -152 -91 -220 -35 -51 44 -64 151 -24 212
38 58 126 78 194 44z m460 -14 c0 -26 -3 -28 -40 -28 l-40 0 0 -120 0 -120
-40 0 -40 0 0 120 0 120 -40 0 c-36 0 -40 3 -40 24 0 13 5 26 10 28 6 2 60 3
120 3 l110 0 0 -27z m110 -29 l0 -59 55 0 55 0 0 54 c0 52 1 54 30 58 17 3 32
2 35 0 3 -3 5 -70 5 -149 l0 -143 -35 0 -34 0 -3 57 -3 57 -50 1 -50 0 -3 -57
-3 -58 -34 0 -35 0 0 143 c0 79 2 146 5 149 3 3 19 5 35 6 l30 1 0 -60z m409
45 c4 -5 26 -63 49 -129 22 -66 44 -128 47 -137 6 -15 1 -18 -33 -18 -37 0
-41 3 -47 30 -6 29 -9 30 -61 30 -52 0 -56 -2 -65 -30 -9 -26 -16 -30 -46 -30
-24 0 -34 4 -31 13 69 186 103 273 110 278 13 8 67 4 77 -7z m444 7 c4 -1 7
-66 7 -146 l0 -145 -35 0 -34 0 -3 97 -3 98 -38 -53 c-21 -28 -42 -52 -46 -52
-5 0 -25 23 -45 52 l-36 52 0 -97 0 -97 -35 0 -35 0 0 145 0 145 38 0 c36 0
42 -4 77 -55 l38 -55 39 52 c39 53 60 68 88 62 8 -1 18 -3 23 -3z m302 -58
l38 -57 33 39 c19 22 36 48 40 58 4 12 16 17 45 17 l39 0 0 -145 0 -145 -35 0
-35 0 0 98 -1 97 -21 -25 c-11 -14 -30 -38 -43 -53 l-22 -29 -39 53 -39 54 -3
-98 -3 -97 -34 0 -35 0 0 145 0 145 39 0 c35 0 41 -4 76 -57z m425 53 c0 -2
22 -68 50 -145 l49 -141 -35 0 c-30 0 -37 4 -45 30 -10 29 -14 30 -68 30 -54
0 -57 -2 -68 -30 -9 -24 -17 -30 -42 -30 l-30 0 30 83 c17 45 37 98 44 117 35
94 32 90 75 90 22 0 40 -2 40 -4z m357 -20 c40 -34 39 -98 -1 -132 l-28 -25
28 -42 c16 -23 33 -47 37 -54 6 -10 -3 -13 -37 -13 -45 0 -46 1 -71 50 -20 40
-30 50 -50 50 -23 0 -25 -3 -25 -50 l0 -50 -35 0 -35 0 0 145 0 145 94 0 c86
0 98 -2 123 -24z m303 -1 c0 -22 -4 -25 -40 -25 l-40 0 0 -120 0 -120 -35 0
-35 0 0 120 0 120 -40 0 c-36 0 -40 3 -40 25 l0 25 115 0 115 0 0 -25z m-2212
-431 c3 -27 6 -30 32 -26 52 8 90 -58 58 -100 -14 -18 -30 -21 -90 -19 l-38 1
0 91 c0 81 2 90 18 87 11 -2 18 -14 20 -34z m1250 14 c2 -10 -5 -19 -18 -23
-26 -8 -40 3 -20 15 14 9 7 14 -12 11 -5 0 -8 4 -8 10 0 17 55 6 58 -13z
m-1696 -46 l38 -57 0 58 c0 44 3 57 15 57 12 0 15 -16 15 -85 0 -103 -10 -108
-63 -32 l-37 52 0 -52 c0 -46 -3 -53 -20 -53 -18 0 -20 7 -20 85 0 74 2 85 18
85 10 0 33 -24 54 -58z m293 48 c11 -17 -5 -32 -21 -19 -7 6 -11 15 -8 20 7
12 21 11 29 -1z m775 -4 c0 -8 -4 -17 -9 -21 -12 -7 -24 12 -16 25 9 15 25 12
25 -4z m-90 -21 c0 -8 7 -15 15 -15 8 0 15 -7 15 -15 0 -8 -7 -15 -15 -15 -24
0 -20 -61 5 -67 30 -8 24 -23 -9 -23 -31 0 -41 14 -41 60 0 16 -5 30 -10 32
-14 4 11 58 28 58 6 0 12 -7 12 -15z m390 0 c0 -8 7 -15 15 -15 8 0 15 -7 15
-15 0 -8 -7 -15 -15 -15 -24 0 -20 -61 5 -67 26 -7 26 -19 0 -26 -28 -7 -50
18 -50 58 0 18 -5 35 -10 37 -14 4 11 58 28 58 6 0 12 -7 12 -15z m-1129 -33
c-6 -11 -11 -32 -11 -45 0 -55 -86 -81 -122 -36 -24 28 -23 54 3 80 18 18 29
20 64 16 34 -5 44 -3 49 10 5 12 10 13 17 6 8 -8 8 -17 0 -31z m1343 5 c-3 -9
-12 -17 -20 -17 -13 0 -20 -38 -15 -77 1 -9 -15 -13 -53 -13 -64 0 -79 16 -74
78 5 55 32 50 38 -8 4 -37 9 -45 25 -45 16 0 21 8 25 45 4 37 8 45 25 43 11
-1 24 5 29 14 11 20 29 2 20 -20z m160 -5 c-4 -9 -8 -30 -9 -46 -4 -44 -30
-61 -87 -57 -26 2 -48 30 -48 61 0 41 37 65 89 56 31 -5 40 -2 46 12 5 12 9
13 12 4 3 -7 1 -20 -3 -30z m-1444 -42 c0 -51 -3 -60 -18 -60 -14 0 -18 9 -20
51 -2 57 2 69 24 69 11 0 14 -14 14 -60z m374 38 c9 -12 16 -40 16 -61 l0 -38
-57 3 c-55 3 -58 5 -61 30 -4 30 27 53 59 45 10 -3 19 -1 19 4 0 5 -16 9 -35
9 -19 0 -35 4 -35 8 0 31 73 31 94 0z m144 10 c18 -15 16 -108 -2 -108 -10 0
-16 14 -18 43 -3 37 -6 42 -28 42 -22 0 -25 -5 -28 -42 -2 -29 -8 -43 -18 -43
-10 0 -14 14 -14 58 l0 59 48 1 c26 0 53 -4 60 -10z m252 -48 c0 -47 -3 -60
-15 -60 -12 0 -15 13 -15 60 0 47 3 60 15 60 12 0 15 -13 15 -60z m138 48 c18
-16 16 -108 -3 -108 -11 0 -15 12 -15 46 0 44 -1 45 -27 42 -25 -3 -28 -7 -31
-45 -2 -29 -8 -43 -18 -43 -10 0 -14 14 -14 58 l0 59 48 1 c26 0 53 -4 60 -10z
m672 -8 c16 -30 13 -100 -4 -100 -10 0 -16 14 -18 43 -3 37 -6 42 -28 42 -22
0 -25 -5 -28 -42 -2 -29 -8 -43 -18 -43 -10 0 -14 14 -14 58 l0 59 50 1 c39 1
52 -3 60 -18z m170 -49 c0 -36 -4 -71 -8 -78 -12 -18 -61 -34 -88 -27 -36 9
-29 22 13 26 49 4 57 28 9 28 -25 0 -39 6 -50 22 -38 53 -4 97 73 96 l51 -1 0
-66z m-1410 -76 c0 -8 -7 -15 -15 -15 -16 0 -20 12 -8 23 11 12 23 8 23 -8z"/>
<path d="M1247 1557 c-21 -15 -32 -73 -23 -120 13 -69 106 -72 124 -5 25 95
-37 172 -101 125z"/>
<path d="M2277 1518 c-3 -13 -9 -33 -12 -45 -7 -21 -4 -23 24 -23 35 0 35 -1
19 51 -13 44 -23 49 -31 17z"/>
<path d="M3450 1525 c-6 -16 -14 -42 -17 -57 -5 -26 -3 -28 25 -28 17 0 33 3
35 8 2 4 -4 30 -13 57 l-18 50 -12 -30z"/>
<path d="M3720 1525 l0 -45 38 0 c43 0 62 14 62 45 0 31 -19 45 -62 45 l-38 0
0 -45z"/>
<path d="M1967 1103 c-15 -15 -6 -52 14 -58 28 -9 53 16 44 44 -6 20 -43 29
-58 14z"/>
<path d="M1647 1103 c-22 -21 0 -63 33 -63 15 0 31 37 24 54 -6 16 -45 22 -57
9z"/>
<path d="M3145 1089 c-10 -30 18 -58 43 -43 9 6 17 22 17 35 0 34 -50 41 -60
8z"/>
<path d="M2113 1058 c2 -7 12 -13 22 -13 10 0 20 6 23 13 2 7 -6 12 -23 12
-17 0 -25 -5 -22 -12z"/>
<path d="M3461 1096 c-16 -20 3 -56 29 -56 26 0 45 36 29 56 -6 8 -19 14 -29
14 -10 0 -23 -6 -29 -14z"/>
</g>
</svg>
