<?xml version="1.0" standalone="no"?>
<!DOCTYPE svg PUBLIC "-//W3C//DTD SVG 20010904//EN"
 "http://www.w3.org/TR/2001/REC-SVG-20010904/DTD/svg10.dtd">
<svg version="1.0" xmlns="http://www.w3.org/2000/svg"
 width="1072.000000pt" height="1072.000000pt" viewBox="0 0 1072.000000 1072.000000"
 preserveAspectRatio="xMidYMid meet">
<metadata>
Created by potrace 1.14, written by Peter Selinger 2001-2017
</metadata>
<g transform="translate(0.000000,1072.000000) scale(0.100000,-0.100000)"
fill="#000000" stroke="none">
<path d="M681 10639 c-122 -24 -244 -77 -332 -145 -162 -124 -267 -304 -299
-510 -7 -48 -10 -1469 -7 -4699 3 -4332 4 -4634 20 -4685 94 -304 288 -494
577 -566 73 -18 214 -19 4725 -19 l4650 0 81 22 c243 65 423 217 521 439 69
155 64 -267 61 4894 l-3 4665 -27 76 c-37 107 -67 163 -132 246 -95 121 -208
200 -370 256 l-91 32 -4665 1 c-2624 1 -4684 -2 -4709 -7z m3490 -2720 c286
-61 480 -348 430 -635 -14 -80 -39 -142 -96 -239 -23 -38 -91 -155 -152 -260
-61 -104 -174 -299 -251 -431 -78 -133 -150 -257 -160 -275 -10 -19 -38 -64
-60 -102 -23 -37 -42 -69 -42 -72 0 -2 -24 -44 -53 -92 -30 -49 -66 -111 -82
-138 -24 -44 -94 -166 -348 -600 -38 -66 -93 -160 -122 -210 -29 -49 -100
-171 -158 -270 -410 -702 -533 -916 -541 -943 -11 -33 11 -88 45 -117 l31 -25
968 0 c968 0 969 0 1027 -22 113 -42 179 -101 227 -202 53 -113 52 -231 -5
-342 -40 -79 -100 -136 -187 -177 l-67 -32 -1342 -3 c-1480 -3 -1420 -5 -1553
59 -88 43 -203 160 -248 251 -58 119 -74 236 -47 360 16 76 33 116 85 203 20
33 80 134 132 225 92 158 278 478 396 680 30 52 85 147 122 210 37 63 98 169
137 235 144 248 287 493 340 585 88 152 188 323 394 675 106 182 209 359 229
395 21 36 77 132 125 215 103 176 111 198 90 252 -31 78 12 74 -782 74 -389 0
-740 3 -779 8 -144 17 -262 101 -322 228 -24 51 -27 70 -27 158 0 87 4 108 27
157 46 100 138 181 241 213 56 18 2297 21 2378 4z m1573 -9 c132 -45 226 -151
255 -288 15 -71 16 -4494 1 -4573 -41 -216 -260 -359 -470 -305 -123 32 -206
100 -263 216 l-32 65 0 2305 0 2306 38 76 c53 108 142 183 244 207 68 16 166
12 227 -9z m2267 5 c518 -78 967 -462 1132 -970 39 -120 58 -235 64 -386 22
-536 -266 -1037 -747 -1302 -172 -94 -391 -154 -605 -164 -106 -5 -127 -3
-184 17 -115 38 -186 103 -239 218 -23 49 -27 70 -27 152 0 86 3 101 32 160
41 83 106 149 187 189 55 27 81 33 183 41 237 18 401 111 523 296 73 112 95
192 95 349 -1 113 -4 139 -26 202 -67 188 -205 328 -397 401 -61 24 -80 26
-212 26 -135 0 -150 -2 -220 -28 -164 -63 -283 -170 -360 -325 -63 -126 -60
-20 -60 -1916 0 -1087 -4 -1756 -10 -1800 -25 -178 -148 -306 -322 -337 -164
-29 -333 57 -409 209 l-34 68 -3 1810 c-3 1998 -6 1887 60 2108 150 508 618
908 1153 986 96 14 322 12 426 -4z"/>
</g>
</svg>
