<?xml version="1.0" standalone="no"?>
<!DOCTYPE svg PUBLIC "-//W3C//DTD SVG 20010904//EN"
 "http://www.w3.org/TR/2001/REC-SVG-20010904/DTD/svg10.dtd">
<svg version="1.0" xmlns="http://www.w3.org/2000/svg"
 width="500.000000pt" height="500.000000pt" viewBox="0 0 500.000000 500.000000"
 preserveAspectRatio="xMidYMid meet">
<metadata>
Created by potrace 1.14, written by Peter Selinger 2001-2017
</metadata>
<g transform="translate(0.000000,500.000000) scale(0.100000,-0.100000)"
fill="#000000" stroke="none">
<path d="M0 2500 l0 -2500 2500 0 2500 0 0 2500 0 2500 -2500 0 -2500 0 0
-2500z m1909 1461 c8 -5 26 -47 41 -93 l27 -83 554 -5 c305 -3 555 -6 555 -8
14 -23 1 -91 -62 -336 -42 -160 -80 -299 -85 -308 -9 -16 -45 -18 -443 -20
l-434 -3 -26 -24 c-56 -53 -19 -151 58 -151 28 0 38 6 54 33 28 45 71 67 129
67 57 0 105 -26 128 -70 l16 -30 99 0 c87 0 99 2 104 18 4 10 20 31 36 47 24
23 41 29 87 32 67 5 113 -17 141 -67 16 -28 21 -30 74 -30 60 0 88 -16 88 -49
0 -30 -22 -41 -85 -41 -58 0 -61 -1 -78 -33 -52 -95 -217 -93 -257 3 l-12 30
-97 0 -96 -1 -20 -31 c-32 -50 -69 -72 -122 -72 -60 1 -109 25 -135 70 -17 29
-26 34 -56 34 -123 0 -208 135 -158 253 15 38 66 84 102 93 13 3 24 12 24 18
0 7 -46 160 -103 342 l-103 329 -93 3 c-87 3 -92 4 -103 27 -9 21 -8 29 7 45
16 18 31 20 124 20 58 0 112 -4 120 -9z m-16 -1499 c29 -13 54 -33 67 -54 30
-49 26 -58 -22 -58 -37 1 -46 5 -63 33 -26 42 -59 57 -122 57 -84 0 -124 -29
-108 -79 7 -22 48 -39 168 -71 139 -36 177 -69 177 -151 0 -94 -80 -144 -230
-144 -95 1 -146 15 -191 52 -32 27 -59 72 -59 98 0 23 89 21 96 -2 19 -58 29
-73 59 -87 39 -19 133 -21 169 -5 31 15 49 61 36 95 -10 25 -77 63 -113 64
-39 0 -173 53 -199 77 -54 51 -42 135 23 168 75 40 231 43 312 7z m317 -78 l0
-86 34 21 c40 25 123 28 166 6 50 -26 60 -59 60 -200 l0 -125 -50 0 -50 0 0
130 c0 127 -1 132 -26 157 -20 20 -31 24 -57 19 -64 -13 -72 -32 -75 -176 l-4
-130 -54 0 -54 0 0 235 0 235 55 0 55 0 0 -86z m675 -63 c130 -59 140 -237 18
-300 -119 -60 -282 -20 -323 79 -18 43 -8 130 18 167 49 70 194 97 287 54z
m305 -6 l0 -24 36 24 c73 49 194 27 241 -44 27 -40 31 -131 9 -185 -38 -91
-180 -124 -256 -59 l-30 25 0 -91 0 -91 -50 0 -50 0 0 235 0 235 50 0 c47 0
50 -2 50 -25z m230 -363 c0 -22 -71 -82 -96 -82 -15 0 -15 2 1 28 43 67 95 97
95 54z m-1731 -31 c50 -63 41 -78 -22 -34 -40 28 -61 56 -50 67 16 15 44 3 72
-33z m-21 -85 c23 -29 42 -56 42 -60 0 -19 -49 -1 -80 29 l-36 35 -41 -35
c-36 -31 -83 -47 -83 -29 0 4 21 31 46 60 38 45 51 54 77 54 26 -1 40 -10 75
-54z m-768 -66 l0 -100 130 0 130 0 0 100 0 100 60 0 60 0 0 -240 0 -240 -60
0 -59 0 -3 118 -3 117 -125 0 -125 0 -3 -117 -3 -118 -54 0 -55 0 0 240 0 240
55 0 55 0 0 -100z m1700 80 c0 -19 -7 -20 -100 -20 l-100 0 0 -220 0 -220 -55
0 -55 0 -2 218 -3 217 -97 3 c-90 2 -98 4 -98 22 0 19 8 20 255 20 248 0 255
-1 255 -20z m658 -10 c24 -24 39 -30 72 -30 33 0 48 6 72 30 16 17 36 30 44
30 18 0 18 -4 -1 -40 -20 -38 -63 -60 -119 -60 -36 0 -52 6 -81 31 -32 29 -48
69 -26 69 5 0 23 -13 39 -30z m-478 -72 l0 -91 25 23 c33 31 127 40 173 16 57
-29 66 -55 70 -198 l4 -128 -56 0 -56 0 0 134 c0 133 0 135 -26 155 -31 25
-46 26 -83 7 -42 -22 -51 -55 -51 -181 l0 -115 -50 0 -50 0 0 235 0 235 50 0
50 0 0 -92z m-1069 -61 c63 -33 91 -85 86 -160 -4 -68 -25 -102 -88 -137 -60
-33 -174 -35 -236 -2 -85 44 -116 139 -74 226 35 71 81 94 197 95 56 1 80 -4
115 -22z m1724 9 c58 -25 69 -53 75 -198 l5 -128 -47 0 c-38 0 -48 4 -53 20
-6 20 -7 20 -31 1 -33 -26 -100 -36 -150 -22 -54 14 -86 50 -86 94 0 76 42
104 173 114 78 6 79 6 79 33 0 76 -118 91 -158 20 -13 -24 -24 -30 -49 -30
-25 0 -33 4 -33 18 0 24 35 61 74 78 41 18 158 18 201 0z m295 -8 c0 -21 0
-21 21 -2 14 12 40 19 83 22 59 4 65 2 99 -27 34 -30 36 -31 46 -13 16 30 65
45 128 40 48 -4 61 -10 85 -37 28 -31 28 -32 28 -166 l0 -135 -50 0 -50 0 0
126 c0 130 -6 156 -41 175 -28 15 -73 -4 -88 -38 -7 -15 -15 -80 -18 -145 l-6
-118 -49 0 -48 0 0 130 c0 126 -1 132 -25 155 -30 31 -47 31 -82 1 -28 -24
-28 -26 -31 -155 l-4 -131 -49 0 -49 0 0 170 0 170 50 0 c45 0 50 -2 50 -22z
m-825 -516 c-8 -8 -45 -10 -45 -2 0 13 11 18 31 13 11 -3 17 -8 14 -11z
m-1225 -2 c0 -5 -2 -10 -4 -10 -3 0 -8 5 -11 10 -3 6 -1 10 4 10 6 0 11 -4 11
-10z m-589 -56 l22 -37 28 34 28 34 1 -52 c0 -29 -4 -53 -10 -53 -5 0 -10 12
-10 27 l0 27 -16 -23 -17 -24 -18 24 -19 24 0 -27 c0 -16 -4 -28 -10 -28 -5 0
-10 25 -10 55 0 30 2 55 4 55 2 0 14 -16 27 -36z m141 -6 c2 -35 7 -43 23 -43
16 0 21 8 23 43 4 55 22 55 22 -1 0 -48 -13 -67 -47 -67 -27 0 -43 27 -43 74
0 51 18 45 22 -6z m182 -67 c-4 -3 -9 0 -11 7 -3 6 -15 12 -28 12 -13 0 -25
-6 -28 -12 -2 -7 -7 -10 -11 -6 -4 3 3 30 15 59 l23 53 23 -53 c13 -30 21 -56
17 -60z m118 87 c4 -31 48 -39 48 -9 0 11 5 23 10 26 6 4 10 -15 10 -49 0 -31
-4 -56 -10 -56 -5 0 -10 12 -10 26 0 21 -4 25 -22 22 -15 -2 -24 -11 -26 -25
-7 -45 -22 -22 -22 32 0 54 15 77 22 33z m193 -86 c-2 -2 -12 3 -24 10 -17 10
-25 10 -41 0 -25 -15 -25 -6 1 55 l21 48 23 -55 c13 -30 22 -56 20 -58z m115
71 c0 20 5 37 10 37 6 0 10 -25 10 -55 0 -30 -2 -55 -5 -55 -2 0 -20 14 -40
31 l-35 31 0 -31 c0 -17 -4 -31 -10 -31 -5 0 -10 26 -10 57 l0 57 40 -39 40
-39 0 37z m135 28 c3 -5 -9 -11 -27 -13 -29 -3 -33 -6 -33 -33 0 -26 4 -30 30
-33 24 -3 28 -1 18 9 -17 17 -16 29 2 29 10 0 15 -10 15 -30 0 -27 -3 -30 -29
-30 -54 0 -80 53 -44 92 17 19 58 24 68 9z m180 -1 c3 -6 -5 -10 -19 -10 -30
0 -49 -28 -35 -53 6 -9 21 -17 34 -17 14 0 25 -4 25 -10 0 -14 -54 -12 -68 2
-18 18 -15 75 6 87 22 13 49 14 57 1z m65 -15 c0 -20 5 -25 25 -25 20 0 25 5
25 25 0 14 5 25 10 25 6 0 10 -25 10 -55 0 -30 -4 -55 -10 -55 -5 0 -10 11
-10 25 0 20 -5 25 -25 25 -20 0 -25 -5 -25 -25 0 -14 -4 -25 -10 -25 -5 0 -10
25 -10 55 0 30 5 55 10 55 6 0 10 -11 10 -25z m130 -30 c0 -30 -4 -55 -10 -55
-5 0 -10 25 -10 55 0 30 5 55 10 55 6 0 10 -25 10 -55z m120 18 c0 20 5 37 10
37 6 0 10 -25 10 -55 0 -30 -2 -55 -5 -55 -2 0 -20 14 -40 31 l-35 31 0 -31
c0 -17 -4 -31 -10 -31 -5 0 -10 26 -10 57 l0 57 40 -39 40 -39 0 37z m80 6 c0
-14 7 -19 25 -19 20 0 25 5 25 25 0 14 5 25 10 25 6 0 10 -25 10 -55 0 -54
-15 -77 -22 -32 -2 14 -11 23 -25 25 -19 3 -23 -1 -23 -22 0 -14 -4 -26 -10
-26 -5 0 -10 25 -10 56 0 34 4 53 10 49 6 -3 10 -15 10 -26z m190 0 c0 -14 7
-19 25 -19 20 0 25 5 25 25 0 14 5 25 10 25 6 0 10 -25 10 -55 0 -54 -15 -77
-22 -32 -2 14 -11 23 -25 25 -19 3 -23 -1 -23 -22 0 -14 -4 -26 -10 -26 -5 0
-10 25 -10 56 0 34 4 53 10 49 6 -3 10 -15 10 -26z m184 -78 c-4 -3 -9 0 -11
7 -3 6 -15 12 -28 12 -13 0 -25 -6 -28 -12 -2 -7 -7 -10 -11 -6 -4 3 3 30 15
59 l23 53 23 -53 c13 -30 21 -56 17 -60z m116 72 c0 20 5 37 10 37 6 0 10 -26
10 -57 l0 -57 -40 39 -40 39 0 -37 c0 -20 -4 -37 -10 -37 -5 0 -10 26 -10 57
l0 57 40 -39 40 -39 0 37z m140 27 c0 -5 -11 -10 -25 -10 -29 0 -47 -28 -34
-53 11 -18 49 -24 49 -7 0 6 -5 10 -12 10 -9 0 -9 3 0 12 16 16 35 -3 30 -28
-4 -23 -52 -31 -74 -13 -20 17 -18 76 4 88 22 13 62 14 62 1z m192 -7 c35 -32
13 -93 -34 -93 -49 0 -74 56 -41 92 20 22 51 23 75 1z m141 -17 c3 30 4 24 5
-20 l2 -60 -35 34 -35 34 0 -32 c0 -18 -4 -32 -10 -32 -5 0 -10 26 -10 57 l0
57 39 -38 40 -39 4 39z m67 -11 c0 -41 2 -45 24 -45 14 0 28 -4 31 -10 4 -6
-10 -10 -34 -10 l-41 0 0 55 c0 30 5 55 10 55 6 0 10 -20 10 -45z m110 -10 c0
-30 -4 -55 -10 -55 -5 0 -10 25 -10 55 0 30 5 55 10 55 6 0 10 -25 10 -55z
m120 18 c0 20 5 37 10 37 6 0 10 -25 10 -55 0 -30 -2 -55 -5 -55 -2 0 -20 14
-40 31 l-35 31 0 -31 c0 -17 -4 -31 -10 -31 -5 0 -10 26 -10 57 l0 57 40 -39
40 -39 0 37z m130 27 c0 -5 -11 -10 -25 -10 -36 0 -33 -30 3 -31 l27 -2 -27
-4 c-35 -5 -37 -33 -3 -33 14 0 25 -4 25 -10 0 -5 -16 -10 -35 -10 l-35 0 0
55 0 55 35 0 c19 0 35 -4 35 -10z"/>
<path d="M2010 3682 c0 -5 7 -29 16 -55 l16 -47 463 0 463 0 11 44 c6 25 11
50 11 55 0 8 -152 11 -490 11 -269 0 -490 -4 -490 -8z"/>
<path d="M2076 3468 c4 -13 10 -33 15 -45 l9 -23 409 0 c225 0 412 3 415 8 2
4 7 24 11 45 l7 37 -437 0 -436 0 7 -22z"/>
<path d="M2135 3283 c3 -15 13 -42 20 -60 l14 -33 345 0 c238 0 347 3 352 11
3 6 12 33 19 60 l13 49 -385 0 -385 0 7 -27z"/>
<path d="M2252 2940 c-25 -11 -41 -45 -34 -72 5 -21 39 -48 60 -48 18 0 62 46
62 65 0 17 -43 65 -57 64 -4 0 -18 -4 -31 -9z"/>
<path d="M2726 2929 c-15 -12 -26 -30 -26 -45 0 -29 33 -64 60 -64 27 0 60 35
60 64 0 22 -40 66 -60 66 -4 0 -19 -9 -34 -21z"/>
<path d="M2734 2296 c-74 -33 -85 -192 -17 -246 46 -36 116 -22 147 31 19 33
23 118 8 159 -22 56 -83 81 -138 56z"/>
<path d="M3249 2295 c-59 -32 -73 -175 -23 -234 20 -24 34 -31 63 -31 61 0
101 56 101 140 0 110 -64 167 -141 125z"/>
<path d="M1551 1688 c-44 -24 -64 -62 -65 -125 0 -100 49 -154 129 -139 56 11
92 84 80 162 -12 81 -85 133 -144 102z"/>
<path d="M3300 1553 c-31 -12 -50 -37 -50 -68 0 -61 70 -86 124 -44 22 17 26
28 26 70 l0 49 -42 -1 c-24 0 -50 -3 -58 -6z"/>
<path d="M1366 1115 c-3 -8 -1 -15 4 -15 6 0 10 7 10 15 0 8 -2 15 -4 15 -2 0
-6 -7 -10 -15z"/>
<path d="M1670 1110 c0 -5 5 -10 10 -10 6 0 10 5 10 10 0 6 -4 10 -10 10 -5 0
-10 -4 -10 -10z"/>
<path d="M2876 1115 c-3 -8 -1 -15 4 -15 6 0 10 7 10 15 0 8 -2 15 -4 15 -2 0
-6 -7 -10 -15z"/>
<path d="M3304 1125 c-8 -32 6 -48 37 -43 19 2 24 9 24 33 0 25 -4 31 -27 33
-22 3 -29 -2 -34 -23z"/>
</g>
</svg>
